<mxfile host="65bd71144e">
    <diagram id="fUJuaP0UBfGO78dAU-vV" name="Page-1">
        <mxGraphModel dx="5084" dy="4507" grid="1" gridSize="10" guides="1" tooltips="1" connect="1" arrows="1" fold="1" page="1" pageScale="1" pageWidth="291" pageHeight="413" background="light-dark(#1E1E1E,#535353)" math="0" shadow="0">
            <root>
                <mxCell id="0"/>
                <mxCell id="1" parent="0"/>
                <mxCell id="41" value="" style="group" parent="1" vertex="1" connectable="0">
                    <mxGeometry x="-989.9999999999995" y="-1160" width="4280" height="1467" as="geometry"/>
                </mxCell>
                <mxCell id="152" value="" style="group" parent="41" vertex="1" connectable="0">
                    <mxGeometry x="2003" y="237" width="1930" height="1230" as="geometry"/>
                </mxCell>
                <mxCell id="78" value="&lt;h1&gt;&lt;br&gt;&lt;/h1&gt;" style="rounded=1;whiteSpace=wrap;html=1;fillColor=light-dark(#F5E1E1,#EDEDED);strokeColor=none;align=center;verticalAlign=middle;fontFamily=Helvetica;fontSize=12;fontColor=default;" parent="152" vertex="1">
                    <mxGeometry x="20" y="-140" width="1850" height="1370" as="geometry"/>
                </mxCell>
                <mxCell id="93" value="&lt;h1&gt;&lt;br&gt;&lt;/h1&gt;" style="rounded=1;whiteSpace=wrap;html=1;fillColor=light-dark(#EFCFCF,#EDEDED);strokeColor=none;align=center;verticalAlign=middle;fontFamily=Helvetica;fontSize=12;fontColor=default;container=0;" parent="152" vertex="1">
                    <mxGeometry x="680" y="222.48" width="500" height="667.52" as="geometry"/>
                </mxCell>
                <mxCell id="148" value="&lt;h1&gt;&lt;br&gt;&lt;/h1&gt;" style="rounded=1;whiteSpace=wrap;html=1;fillColor=light-dark(#D32F2F,#EDEDED);strokeColor=none;align=center;verticalAlign=middle;fontFamily=Helvetica;fontSize=12;fontColor=default;" parent="152" vertex="1">
                    <mxGeometry x="721.99" y="510.00000000000006" width="418" height="170.52" as="geometry"/>
                </mxCell>
                <mxCell id="95" value="" style="group" parent="152" vertex="1" connectable="0">
                    <mxGeometry x="101.99999999999955" y="324.5" width="1743" height="580" as="geometry"/>
                </mxCell>
                <mxCell id="112" value="" style="group" parent="95" vertex="1" connectable="0">
                    <mxGeometry width="681.8243327008229" height="568.63" as="geometry"/>
                </mxCell>
                <mxCell id="81" value="&lt;h1&gt;&lt;br&gt;&lt;/h1&gt;" style="rounded=1;whiteSpace=wrap;html=1;fillColor=light-dark(#EFCFCF,#EDEDED);strokeColor=none;align=center;verticalAlign=middle;fontFamily=Helvetica;fontSize=12;fontColor=default;container=0;" parent="112" vertex="1">
                    <mxGeometry y="-110" width="500" height="678.63" as="geometry"/>
                </mxCell>
                <mxCell id="127" value="" style="group" parent="112" vertex="1" connectable="0">
                    <mxGeometry x="15.009999999999998" y="-24.5" width="666.8143327008229" height="501.89" as="geometry"/>
                </mxCell>
                <mxCell id="99" value="" style="group" parent="127" vertex="1" connectable="0">
                    <mxGeometry width="469.98" height="100" as="geometry"/>
                </mxCell>
                <mxCell id="97" value="&lt;h1&gt;&lt;br&gt;&lt;/h1&gt;" style="rounded=1;whiteSpace=wrap;html=1;fillColor=light-dark(#FFCDD2,#EDEDED);strokeColor=none;align=center;verticalAlign=middle;fontFamily=Helvetica;fontSize=12;fontColor=default;" parent="99" vertex="1">
                    <mxGeometry x="29.990000000000002" width="410" height="100" as="geometry"/>
                </mxCell>
                <mxCell id="98" value="&lt;h1&gt;&lt;font color=&quot;#000000&quot;&gt;Tmotor&lt;/font&gt;&lt;/h1&gt;" style="text;html=1;align=center;verticalAlign=middle;whiteSpace=wrap;rounded=0;fontFamily=Helvetica;fontSize=18;fontColor=default;" parent="99" vertex="1">
                    <mxGeometry y="11.89" width="469.98" height="76.22" as="geometry"/>
                </mxCell>
                <mxCell id="100" value="" style="group" parent="127" vertex="1" connectable="0">
                    <mxGeometry x="2.990000000000002" y="120" width="469.98" height="100" as="geometry"/>
                </mxCell>
                <mxCell id="101" value="&lt;h1&gt;&lt;br&gt;&lt;/h1&gt;" style="rounded=1;whiteSpace=wrap;html=1;fillColor=light-dark(#FFCDD2,#EDEDED);strokeColor=none;align=center;verticalAlign=middle;fontFamily=Helvetica;fontSize=12;fontColor=default;" parent="100" vertex="1">
                    <mxGeometry x="29.990000000000002" width="410" height="100" as="geometry"/>
                </mxCell>
                <mxCell id="102" value="&lt;h1&gt;&lt;font color=&quot;#000000&quot;&gt;Tmotor&lt;/font&gt;&lt;/h1&gt;" style="text;html=1;align=center;verticalAlign=middle;whiteSpace=wrap;rounded=0;fontFamily=Helvetica;fontSize=18;fontColor=default;" parent="100" vertex="1">
                    <mxGeometry y="11.89" width="469.98" height="76.22" as="geometry"/>
                </mxCell>
                <mxCell id="103" value="" style="group" parent="127" vertex="1" connectable="0">
                    <mxGeometry x="2.990000000000002" y="250" width="663.8243327008229" height="140" as="geometry"/>
                </mxCell>
                <mxCell id="104" value="&lt;h1&gt;&lt;br&gt;&lt;/h1&gt;" style="rounded=1;whiteSpace=wrap;html=1;fillColor=light-dark(#FFCDD2,#EDEDED);strokeColor=none;align=center;verticalAlign=middle;fontFamily=Helvetica;fontSize=12;fontColor=default;" parent="103" vertex="1">
                    <mxGeometry x="29.990000000000002" width="410" height="100" as="geometry"/>
                </mxCell>
                <mxCell id="105" value="&lt;h1&gt;&lt;font color=&quot;#000000&quot;&gt;Tmotor&lt;/font&gt;&lt;/h1&gt;" style="text;html=1;align=center;verticalAlign=middle;whiteSpace=wrap;rounded=0;fontFamily=Helvetica;fontSize=18;fontColor=default;" parent="103" vertex="1">
                    <mxGeometry y="11.89" width="469.98" height="76.22" as="geometry"/>
                </mxCell>
                <mxCell id="109" value="" style="group" parent="127" vertex="1" connectable="0">
                    <mxGeometry x="2.990000000000002" y="390" width="663.8243327008229" height="111.88999999999999" as="geometry"/>
                </mxCell>
                <mxCell id="110" value="&lt;h1&gt;&lt;br&gt;&lt;/h1&gt;" style="rounded=1;whiteSpace=wrap;html=1;fillColor=light-dark(#FFCDD2,#EDEDED);strokeColor=none;align=center;verticalAlign=middle;fontFamily=Helvetica;fontSize=12;fontColor=default;" parent="109" vertex="1">
                    <mxGeometry x="29.990000000000002" width="410" height="100" as="geometry"/>
                </mxCell>
                <mxCell id="111" value="&lt;h1&gt;&lt;font color=&quot;#000000&quot;&gt;Proximity Sensors&lt;/font&gt;&lt;/h1&gt;" style="text;html=1;align=center;verticalAlign=middle;whiteSpace=wrap;rounded=0;fontFamily=Helvetica;fontSize=18;fontColor=default;" parent="109" vertex="1">
                    <mxGeometry y="11.89" width="469.98" height="76.22" as="geometry"/>
                </mxCell>
                <mxCell id="186" value="" style="endArrow=classic;html=1;strokeWidth=5;strokeColor=light-dark(#d32f2f, #ededed);" parent="95" source="151" edge="1">
                    <mxGeometry relative="1" as="geometry">
                        <mxPoint x="1078.0000000000005" y="413.5" as="sourcePoint"/>
                        <mxPoint x="1135" y="728.5" as="targetPoint"/>
                        <Array as="points">
                            <mxPoint x="1135" y="459.5"/>
                        </Array>
                    </mxGeometry>
                </mxCell>
                <mxCell id="106" value="" style="group" parent="152" vertex="1" connectable="0">
                    <mxGeometry y="1053" width="1850" height="100" as="geometry"/>
                </mxCell>
                <mxCell id="107" value="&lt;h1&gt;&lt;br&gt;&lt;/h1&gt;" style="rounded=1;whiteSpace=wrap;html=1;fillColor=light-dark(#FFCDD2,#EDEDED);strokeColor=none;align=center;verticalAlign=middle;fontFamily=Helvetica;fontSize=12;fontColor=default;" parent="106" vertex="1">
                    <mxGeometry x="110" width="1660" height="100" as="geometry"/>
                </mxCell>
                <mxCell id="128" value="" style="group" parent="152" vertex="1" connectable="0">
                    <mxGeometry x="1269.9999999999995" y="320" width="500.00000000000045" height="568.63" as="geometry"/>
                </mxCell>
                <mxCell id="129" value="&lt;h1&gt;&lt;br&gt;&lt;/h1&gt;" style="rounded=1;whiteSpace=wrap;html=1;fillColor=light-dark(#EFCFCF,#EDEDED);strokeColor=none;align=center;verticalAlign=middle;fontFamily=Helvetica;fontSize=12;fontColor=default;container=0;" parent="128" vertex="1">
                    <mxGeometry y="-110" width="500" height="678.63" as="geometry"/>
                </mxCell>
                <mxCell id="131" value="" style="group" parent="128" vertex="1" connectable="0">
                    <mxGeometry x="26.530000000000218" y="-80.5" width="469.98" height="100" as="geometry"/>
                </mxCell>
                <mxCell id="132" value="&lt;h1&gt;&lt;br&gt;&lt;/h1&gt;" style="rounded=1;whiteSpace=wrap;html=1;fillColor=light-dark(#FFCDD2,#EDEDED);strokeColor=none;align=center;verticalAlign=middle;fontFamily=Helvetica;fontSize=12;fontColor=default;" parent="131" vertex="1">
                    <mxGeometry x="29.990000000000002" width="410" height="100" as="geometry"/>
                </mxCell>
                <mxCell id="133" value="&lt;h1&gt;&lt;font color=&quot;#000000&quot;&gt;Tmotor&lt;/font&gt;&lt;/h1&gt;" style="text;html=1;align=center;verticalAlign=middle;whiteSpace=wrap;rounded=0;fontFamily=Helvetica;fontSize=18;fontColor=default;" parent="131" vertex="1">
                    <mxGeometry y="11.89" width="469.98" height="76.22" as="geometry"/>
                </mxCell>
                <mxCell id="134" value="" style="group" parent="128" vertex="1" connectable="0">
                    <mxGeometry x="29.52000000000022" y="39.5" width="469.98" height="100" as="geometry"/>
                </mxCell>
                <mxCell id="135" value="&lt;h1&gt;&lt;br&gt;&lt;/h1&gt;" style="rounded=1;whiteSpace=wrap;html=1;fillColor=light-dark(#FFCDD2,#EDEDED);strokeColor=none;align=center;verticalAlign=middle;fontFamily=Helvetica;fontSize=12;fontColor=default;" parent="134" vertex="1">
                    <mxGeometry x="29.990000000000002" width="410" height="100" as="geometry"/>
                </mxCell>
                <mxCell id="136" value="&lt;h1&gt;&lt;font color=&quot;#000000&quot;&gt;Tmotor&lt;/font&gt;&lt;/h1&gt;" style="text;html=1;align=center;verticalAlign=middle;whiteSpace=wrap;rounded=0;fontFamily=Helvetica;fontSize=18;fontColor=default;" parent="134" vertex="1">
                    <mxGeometry y="11.89" width="469.98" height="76.22" as="geometry"/>
                </mxCell>
                <mxCell id="137" value="" style="group" parent="128" vertex="1" connectable="0">
                    <mxGeometry x="29.52000000000022" y="169.5" width="469.98" height="100" as="geometry"/>
                </mxCell>
                <mxCell id="138" value="&lt;h1&gt;&lt;br&gt;&lt;/h1&gt;" style="rounded=1;whiteSpace=wrap;html=1;fillColor=light-dark(#FFCDD2,#EDEDED);strokeColor=none;align=center;verticalAlign=middle;fontFamily=Helvetica;fontSize=12;fontColor=default;" parent="137" vertex="1">
                    <mxGeometry x="29.990000000000002" width="410" height="100" as="geometry"/>
                </mxCell>
                <mxCell id="139" value="&lt;h1&gt;&lt;font color=&quot;#000000&quot;&gt;Tmotor&lt;/font&gt;&lt;/h1&gt;" style="text;html=1;align=center;verticalAlign=middle;whiteSpace=wrap;rounded=0;fontFamily=Helvetica;fontSize=18;fontColor=default;" parent="137" vertex="1">
                    <mxGeometry y="11.89" width="469.98" height="76.22" as="geometry"/>
                </mxCell>
                <mxCell id="140" value="" style="group" parent="128" vertex="1" connectable="0">
                    <mxGeometry x="29.52000000000022" y="309.5" width="469.98" height="100" as="geometry"/>
                </mxCell>
                <mxCell id="141" value="&lt;h1&gt;&lt;br&gt;&lt;/h1&gt;" style="rounded=1;whiteSpace=wrap;html=1;fillColor=light-dark(#FFCDD2,#EDEDED);strokeColor=none;align=center;verticalAlign=middle;fontFamily=Helvetica;fontSize=12;fontColor=default;" parent="140" vertex="1">
                    <mxGeometry x="29.990000000000002" width="410" height="100" as="geometry"/>
                </mxCell>
                <mxCell id="142" value="&lt;h1&gt;&lt;font color=&quot;#000000&quot;&gt;Tmotor&lt;/font&gt;&lt;/h1&gt;" style="text;html=1;align=center;verticalAlign=middle;whiteSpace=wrap;rounded=0;fontFamily=Helvetica;fontSize=18;fontColor=default;" parent="140" vertex="1">
                    <mxGeometry y="11.89" width="469.98" height="76.22" as="geometry"/>
                </mxCell>
                <mxCell id="144" value="&lt;h1&gt;&lt;br&gt;&lt;/h1&gt;" style="rounded=1;whiteSpace=wrap;html=1;fillColor=light-dark(#FFCDD2,#EDEDED);strokeColor=none;align=center;verticalAlign=middle;fontFamily=Helvetica;fontSize=12;fontColor=default;" parent="128" vertex="1">
                    <mxGeometry x="56.52000000000044" y="435.5" width="410" height="100" as="geometry"/>
                </mxCell>
                <mxCell id="146" value="&lt;h1&gt;&lt;font color=&quot;#000000&quot;&gt;Proximity Sensors&lt;/font&gt;&lt;/h1&gt;" style="text;html=1;align=center;verticalAlign=middle;whiteSpace=wrap;rounded=0;fontFamily=Helvetica;fontSize=18;fontColor=default;" parent="128" vertex="1">
                    <mxGeometry x="26.530000000000435" y="447.39" width="469.98" height="76.22" as="geometry"/>
                </mxCell>
                <mxCell id="147" value="&lt;h1&gt;&lt;br&gt;&lt;/h1&gt;" style="rounded=1;whiteSpace=wrap;html=1;fillColor=light-dark(#D32F2F,#EDEDED);strokeColor=none;align=center;verticalAlign=middle;fontFamily=Helvetica;fontSize=12;fontColor=default;" parent="152" vertex="1">
                    <mxGeometry x="725.99" y="279.48" width="418" height="170.52" as="geometry"/>
                </mxCell>
                <mxCell id="150" value="&lt;h1&gt;&lt;br&gt;&lt;/h1&gt;" style="rounded=1;whiteSpace=wrap;html=1;fillColor=light-dark(#FFCDD2,#EDEDED);strokeColor=none;align=center;verticalAlign=middle;fontFamily=Helvetica;fontSize=12;fontColor=default;" parent="152" vertex="1">
                    <mxGeometry x="729.9899999999996" y="734" width="410" height="100" as="geometry"/>
                </mxCell>
                <mxCell id="151" value="&lt;h1&gt;&lt;font color=&quot;#000000&quot;&gt;Proximity Sensors&lt;/font&gt;&lt;/h1&gt;" style="text;html=1;align=center;verticalAlign=middle;whiteSpace=wrap;rounded=0;fontFamily=Helvetica;fontSize=18;fontColor=default;" parent="152" vertex="1">
                    <mxGeometry x="699.9999999999995" y="745.89" width="469.98" height="76.22" as="geometry"/>
                </mxCell>
                <mxCell id="154" value="&lt;h1&gt;&lt;font style=&quot;color: rgb(255, 255, 255);&quot;&gt;(Wrist Actuator)&lt;/font&gt;&lt;/h1&gt;" style="text;html=1;align=center;verticalAlign=middle;whiteSpace=wrap;rounded=0;fontFamily=Helvetica;fontSize=18;fontColor=#FFFFFF;fillColor=none;labelBackgroundColor=none;labelBorderColor=none;textShadow=0;" parent="152" vertex="1">
                    <mxGeometry x="706.5799999999996" y="580" width="456.82" height="84.5" as="geometry"/>
                </mxCell>
                <mxCell id="153" value="&lt;h1&gt;&lt;font style=&quot;color: rgb(255, 255, 255);&quot;&gt;Maxon Motor&lt;/font&gt;&lt;/h1&gt;" style="text;html=1;align=center;verticalAlign=middle;whiteSpace=wrap;rounded=0;fontFamily=Helvetica;fontSize=18;fontColor=#FFFFFF;fillColor=none;labelBackgroundColor=none;labelBorderColor=none;textShadow=0;" parent="152" vertex="1">
                    <mxGeometry x="706.9999999999995" y="530" width="456.82" height="84.5" as="geometry"/>
                </mxCell>
                <mxCell id="155" value="&lt;h1&gt;&lt;font style=&quot;color: rgb(255, 255, 255);&quot;&gt;Maxon Motor&lt;/font&gt;&lt;/h1&gt;" style="text;html=1;align=center;verticalAlign=middle;whiteSpace=wrap;rounded=0;fontFamily=Helvetica;fontSize=18;fontColor=#FFFFFF;fillColor=none;labelBackgroundColor=none;labelBorderColor=none;textShadow=0;" parent="152" vertex="1">
                    <mxGeometry x="713.1599999999995" y="300" width="456.82" height="84.5" as="geometry"/>
                </mxCell>
                <mxCell id="156" value="&lt;h1&gt;&lt;font style=&quot;color: rgb(255, 255, 255);&quot;&gt;(Wrist Actuator)&lt;/font&gt;&lt;/h1&gt;" style="text;html=1;align=center;verticalAlign=middle;whiteSpace=wrap;rounded=0;fontFamily=Helvetica;fontSize=18;fontColor=#FFFFFF;fillColor=none;labelBackgroundColor=none;labelBorderColor=none;textShadow=0;" parent="152" vertex="1">
                    <mxGeometry x="712.7399999999996" y="350" width="456.82" height="84.5" as="geometry"/>
                </mxCell>
                <mxCell id="108" value="&lt;h1&gt;&lt;font color=&quot;#000000&quot;&gt;USBIO&lt;/font&gt;&lt;/h1&gt;" style="text;html=1;align=center;verticalAlign=middle;whiteSpace=wrap;rounded=0;fontFamily=Helvetica;fontSize=18;fontColor=default;" parent="152" vertex="1">
                    <mxGeometry x="109.99" y="1070" width="1650" height="76.22" as="geometry"/>
                </mxCell>
                <mxCell id="177" value="d" style="endArrow=classic;html=1;entryX=0.5;entryY=1;entryDx=0;entryDy=0;strokeWidth=5;strokeColor=light-dark(#0000FF,#EDEDED);" parent="152" target="81" edge="1">
                    <mxGeometry relative="1" as="geometry">
                        <mxPoint x="-350.00000000000045" y="943" as="sourcePoint"/>
                        <mxPoint x="942.9999999999995" y="863" as="targetPoint"/>
                        <Array as="points">
                            <mxPoint x="351.99999999999955" y="943"/>
                        </Array>
                    </mxGeometry>
                </mxCell>
                <mxCell id="79" value="&lt;h1&gt;&lt;font color=&quot;#000000&quot;&gt;Drum Robot System&lt;/font&gt;&lt;/h1&gt;" style="text;html=1;align=center;verticalAlign=middle;whiteSpace=wrap;rounded=0;fontFamily=Helvetica;fontSize=18;fontColor=default;" parent="152" vertex="1">
                    <mxGeometry x="403.25999999999976" y="-127" width="1064.3" height="90" as="geometry"/>
                </mxCell>
                <mxCell id="182" value="" style="endArrow=classic;html=1;exitX=1;exitY=0.5;exitDx=0;exitDy=0;strokeWidth=5;strokeColor=light-dark(#d32f2f, #ededed);" parent="152" source="111" edge="1">
                    <mxGeometry relative="1" as="geometry">
                        <mxPoint x="57" y="835" as="sourcePoint"/>
                        <mxPoint x="646.9999999999995" y="1055" as="targetPoint"/>
                        <Array as="points">
                            <mxPoint x="646.9999999999995" y="740"/>
                        </Array>
                    </mxGeometry>
                </mxCell>
                <mxCell id="187" value="" style="endArrow=classic;html=1;strokeWidth=5;strokeColor=light-dark(#d32f2f, #ededed);entryX=0.974;entryY=0.034;entryDx=0;entryDy=0;entryPerimeter=0;" parent="152" source="146" target="107" edge="1">
                    <mxGeometry relative="1" as="geometry">
                        <mxPoint x="1736.9999999999995" y="801.5" as="sourcePoint"/>
                        <mxPoint x="1803.9999999999995" y="1070" as="targetPoint"/>
                        <Array as="points">
                            <mxPoint x="1816.9999999999995" y="813"/>
                            <mxPoint x="1816.9999999999995" y="963"/>
                            <mxPoint x="1726.9999999999995" y="963"/>
                        </Array>
                    </mxGeometry>
                </mxCell>
                <mxCell id="44" value="" style="group" parent="41" vertex="1" connectable="0">
                    <mxGeometry x="440" y="300" width="1679.299999999999" height="900" as="geometry"/>
                </mxCell>
                <mxCell id="39" value="&lt;h1&gt;&lt;br&gt;&lt;/h1&gt;" style="rounded=1;whiteSpace=wrap;html=1;fillColor=light-dark(#F5E1E1,#EDEDED);strokeColor=none;align=center;verticalAlign=middle;fontFamily=Helvetica;fontSize=12;fontColor=default;" parent="44" vertex="1">
                    <mxGeometry y="-133" width="1206.7391304347827" height="900" as="geometry"/>
                </mxCell>
                <mxCell id="40" value="&lt;h1&gt;&lt;font color=&quot;#000000&quot;&gt;Adventech Fanless Computer&lt;/font&gt;&lt;/h1&gt;" style="text;html=1;align=center;verticalAlign=middle;whiteSpace=wrap;rounded=0;fontFamily=Helvetica;fontSize=18;fontColor=default;" parent="44" vertex="1">
                    <mxGeometry x="116.69850397381897" y="-101.6983742911153" width="973.347826086957" height="76.21928166351607" as="geometry"/>
                </mxCell>
                <mxCell id="30" value="" style="group" parent="44" vertex="1" connectable="0">
                    <mxGeometry x="112.0820102851794" y="645.9965217391303" width="1042.33" height="79.94" as="geometry"/>
                </mxCell>
                <mxCell id="54" value="" style="group" parent="30" vertex="1" connectable="0">
                    <mxGeometry width="480" height="78.94" as="geometry"/>
                </mxCell>
                <mxCell id="58" value="" style="group" parent="54" vertex="1" connectable="0">
                    <mxGeometry width="480" height="78.94" as="geometry"/>
                </mxCell>
                <mxCell id="28" value="&lt;h1&gt;&lt;br&gt;&lt;/h1&gt;" style="rounded=1;whiteSpace=wrap;html=1;fillColor=light-dark(#FFCDD2,#EDEDED);strokeColor=none;align=center;verticalAlign=middle;fontFamily=Helvetica;fontSize=12;fontColor=default;" parent="58" vertex="1">
                    <mxGeometry y="-110" width="480" height="188.94" as="geometry"/>
                </mxCell>
                <mxCell id="73" value="&lt;h1&gt;&lt;font color=&quot;#000000&quot;&gt;(Sensor Handler)&amp;nbsp;&lt;/font&gt;&lt;/h1&gt;" style="text;html=1;align=center;verticalAlign=middle;whiteSpace=wrap;rounded=0;fontFamily=Helvetica;fontSize=18;fontColor=default;" parent="58" vertex="1">
                    <mxGeometry x="45.98" y="-11" width="388.03" height="79" as="geometry"/>
                </mxCell>
                <mxCell id="29" value="&lt;h1&gt;&lt;font color=&quot;#000000&quot;&gt;USBIO_Adventech&lt;/font&gt;&lt;/h1&gt;" style="text;html=1;align=center;verticalAlign=middle;whiteSpace=wrap;rounded=0;fontFamily=Helvetica;fontSize=18;fontColor=default;" parent="58" vertex="1">
                    <mxGeometry x="30.50798971482004" y="-89.99652173913034" width="418.97" height="79" as="geometry"/>
                </mxCell>
                <mxCell id="55" value="" style="group" parent="30" vertex="1" connectable="0">
                    <mxGeometry x="500" y="1" width="542.33" height="78.94" as="geometry"/>
                </mxCell>
                <mxCell id="56" value="&lt;h1&gt;&lt;br&gt;&lt;/h1&gt;" style="rounded=1;whiteSpace=wrap;html=1;fillColor=light-dark(#FFCDD2,#EDEDED);strokeColor=none;align=center;verticalAlign=middle;fontFamily=Helvetica;fontSize=12;fontColor=default;" parent="55" vertex="1">
                    <mxGeometry width="500.61230769230775" height="78.94" as="geometry"/>
                </mxCell>
                <mxCell id="57" value="&lt;h1&gt;&lt;font color=&quot;#000000&quot;&gt;CAN Manager&lt;/font&gt;&lt;/h1&gt;" style="text;html=1;align=center;verticalAlign=middle;whiteSpace=wrap;rounded=0;fontFamily=Helvetica;fontSize=18;fontColor=default;" parent="55" vertex="1">
                    <mxGeometry x="69.58547671390014" y="1.36" width="403.1652676315789" height="77.58" as="geometry"/>
                </mxCell>
                <mxCell id="49" value="&lt;h1&gt;&lt;br&gt;&lt;/h1&gt;" style="rounded=1;whiteSpace=wrap;html=1;fillColor=light-dark(#EFCFCF,#EDEDED);strokeColor=none;align=center;verticalAlign=middle;fontFamily=Helvetica;fontSize=12;fontColor=default;" parent="44" vertex="1">
                    <mxGeometry x="104.94623655913978" y="7" width="1023.2258064516129" height="510" as="geometry"/>
                </mxCell>
                <mxCell id="45" value="&lt;h1&gt;&lt;br&gt;&lt;/h1&gt;" style="rounded=1;whiteSpace=wrap;html=1;fillColor=light-dark(#D32F2F,#EDEDED);strokeColor=none;align=center;verticalAlign=middle;fontFamily=Helvetica;fontSize=12;fontColor=default;" parent="44" vertex="1">
                    <mxGeometry x="669.0322580645161" y="167" width="432.9032258064516" height="320.87" as="geometry"/>
                </mxCell>
                <mxCell id="59" value="" style="group" parent="44" vertex="1" connectable="0">
                    <mxGeometry x="649.9314726507707" y="536.9965217391303" width="480" height="78.94" as="geometry"/>
                </mxCell>
                <mxCell id="60" value="&lt;h1&gt;&lt;br&gt;&lt;/h1&gt;" style="rounded=1;whiteSpace=wrap;html=1;fillColor=light-dark(#FFCDD2,#EDEDED);strokeColor=none;align=center;verticalAlign=middle;fontFamily=Helvetica;fontSize=12;fontColor=default;" parent="59" vertex="1">
                    <mxGeometry x="-40" width="499.14" height="78.94" as="geometry"/>
                </mxCell>
                <mxCell id="61" value="&lt;h1&gt;&lt;font color=&quot;#000000&quot;&gt;Motor CommandParser&lt;/font&gt;&lt;/h1&gt;" style="text;html=1;align=center;verticalAlign=middle;whiteSpace=wrap;rounded=0;fontFamily=Helvetica;fontSize=18;fontColor=default;" parent="59" vertex="1">
                    <mxGeometry x="-1.730000000000004" y="1.36" width="422.6" height="77.58" as="geometry"/>
                </mxCell>
                <mxCell id="66" value="&lt;h1&gt;&lt;font style=&quot;color: rgb(255, 255, 255);&quot;&gt;PathManager&lt;/font&gt;&lt;/h1&gt;" style="text;html=1;align=center;verticalAlign=middle;whiteSpace=wrap;rounded=0;fontFamily=Helvetica;fontSize=18;fontColor=#FFFFFF;fillColor=none;labelBackgroundColor=none;labelBorderColor=none;textShadow=0;" parent="44" vertex="1">
                    <mxGeometry x="657.0695382669198" y="237" width="456.8247944339025" height="100" as="geometry"/>
                </mxCell>
                <mxCell id="63" value="" style="group" parent="44" vertex="1" connectable="0">
                    <mxGeometry x="157.41935483870967" y="37" width="931.3978494623657" height="100" as="geometry"/>
                </mxCell>
                <mxCell id="64" value="" style="rounded=1;whiteSpace=wrap;html=1;fillColor=light-dark(#FFCDD2,#EDEDED);strokeColor=none;align=center;verticalAlign=middle;fontFamily=Helvetica;fontSize=12;fontColor=default;" parent="63" vertex="1">
                    <mxGeometry y="9.560000000000002" width="931.3978494623653" height="80.88" as="geometry"/>
                </mxCell>
                <mxCell id="65" value="&lt;h1&gt;&lt;font color=&quot;#000000&quot;&gt;User Interface&lt;/font&gt;&lt;/h1&gt;" style="text;html=1;align=center;verticalAlign=middle;whiteSpace=wrap;rounded=0;fontFamily=Helvetica;fontSize=18;fontColor=default;" parent="63" vertex="1">
                    <mxGeometry x="246.54648956356735" width="438.3048703352308" height="100" as="geometry"/>
                </mxCell>
                <mxCell id="67" value="" style="group" parent="44" vertex="1" connectable="0">
                    <mxGeometry x="144.30107526881721" y="227" width="600" height="250" as="geometry"/>
                </mxCell>
                <mxCell id="68" value="" style="rounded=1;whiteSpace=wrap;html=1;fillColor=light-dark(#FFCDD2,#EDEDED);strokeColor=none;align=center;verticalAlign=middle;fontFamily=Helvetica;fontSize=12;fontColor=default;" parent="67" vertex="1">
                    <mxGeometry y="-60" width="498.494623655914" height="310" as="geometry"/>
                </mxCell>
                <mxCell id="69" value="&lt;h1&gt;&lt;font color=&quot;#000000&quot;&gt;TestManager&lt;/font&gt;&lt;/h1&gt;" style="text;html=1;align=center;verticalAlign=middle;whiteSpace=wrap;rounded=0;fontFamily=Helvetica;fontSize=18;fontColor=default;" parent="67" vertex="1">
                    <mxGeometry x="79.1" y="20" width="340.3" height="70" as="geometry"/>
                </mxCell>
                <mxCell id="74" value="&lt;h1&gt;&lt;font color=&quot;#000000&quot;&gt;(Dummy Motion Generator)&lt;/font&gt;&lt;/h1&gt;" style="text;html=1;align=center;verticalAlign=middle;whiteSpace=wrap;rounded=0;fontFamily=Helvetica;fontSize=18;fontColor=default;" parent="67" vertex="1">
                    <mxGeometry x="-11.200000000000003" y="110" width="520.9" height="70" as="geometry"/>
                </mxCell>
                <mxCell id="70" value="&lt;h1&gt;&lt;font style=&quot;color: rgb(255, 255, 255);&quot;&gt;(Motion Generator)&lt;/font&gt;&lt;/h1&gt;" style="text;html=1;align=center;verticalAlign=middle;whiteSpace=wrap;rounded=0;fontFamily=Helvetica;fontSize=18;fontColor=#FFFFFF;fillColor=none;labelBackgroundColor=none;labelBorderColor=none;textShadow=0;" parent="44" vertex="1">
                    <mxGeometry x="657.0714737507908" y="317" width="456.8247944339025" height="100" as="geometry"/>
                </mxCell>
                <mxCell id="167" value="" style="endArrow=classic;html=1;exitX=0.999;exitY=0.161;exitDx=0;exitDy=0;exitPerimeter=0;entryX=0.5;entryY=0;entryDx=0;entryDy=0;strokeWidth=5;strokeColor=light-dark(#d32f2f, #ededed);startArrow=classicThin;startFill=1;" parent="44" target="81" edge="1">
                    <mxGeometry relative="1" as="geometry">
                        <mxPoint x="1206.74" y="39" as="sourcePoint"/>
                        <mxPoint x="2493.74" y="186" as="targetPoint"/>
                        <Array as="points">
                            <mxPoint x="1914.9999999999995" y="37"/>
                        </Array>
                    </mxGeometry>
                </mxCell>
                <mxCell id="179" value="&lt;h1&gt;&lt;font style=&quot;color: rgb(255, 255, 255); font-size: 44px;&quot;&gt;Power&lt;/font&gt;&lt;/h1&gt;" style="text;html=1;align=center;verticalAlign=middle;whiteSpace=wrap;rounded=0;fontFamily=Helvetica;fontSize=18;fontColor=default;" parent="44" vertex="1">
                    <mxGeometry x="1300" y="798" width="210" height="76.22" as="geometry"/>
                </mxCell>
                <mxCell id="195" value="&lt;h1&gt;&lt;font style=&quot;color: rgb(255, 255, 255); font-size: 44px;&quot;&gt;Sensor Signals&lt;/font&gt;&lt;/h1&gt;" style="text;html=1;align=center;verticalAlign=middle;whiteSpace=wrap;rounded=0;fontFamily=Helvetica;fontSize=18;fontColor=default;" vertex="1" parent="44">
                    <mxGeometry x="1280" y="430" width="210" height="76.22" as="geometry"/>
                </mxCell>
                <mxCell id="162" value="" style="endArrow=classic;html=1;exitX=0.998;exitY=0.133;exitDx=0;exitDy=0;exitPerimeter=0;entryX=0.5;entryY=0;entryDx=0;entryDy=0;strokeWidth=5;strokeColor=light-dark(#d32f2f, #ededed);startArrow=classic;startFill=1;" parent="41" source="39" target="129" edge="1">
                    <mxGeometry relative="1" as="geometry">
                        <mxPoint x="1829.9999999999995" y="287" as="sourcePoint"/>
                        <mxPoint x="1929.9999999999995" y="287" as="targetPoint"/>
                        <Array as="points">
                            <mxPoint x="3522.9999999999995" y="277"/>
                        </Array>
                    </mxGeometry>
                </mxCell>
                <mxCell id="165" value="" style="endArrow=classic;html=1;exitX=0.999;exitY=0.161;exitDx=0;exitDy=0;exitPerimeter=0;entryX=0.5;entryY=0;entryDx=0;entryDy=0;strokeWidth=5;strokeColor=light-dark(#d32f2f, #ededed);startArrow=classic;startFill=1;" parent="41" source="39" target="93" edge="1">
                    <mxGeometry relative="1" as="geometry">
                        <mxPoint x="1654" y="297" as="sourcePoint"/>
                        <mxPoint x="3533" y="457" as="targetPoint"/>
                        <Array as="points">
                            <mxPoint x="2932.9999999999995" y="310"/>
                        </Array>
                    </mxGeometry>
                </mxCell>
                <mxCell id="169" value="&lt;h1&gt;&lt;font style=&quot;color: rgb(255, 255, 255); font-size: 44px;&quot;&gt;CAN&lt;/font&gt;&lt;/h1&gt;" style="text;html=1;align=center;verticalAlign=middle;whiteSpace=wrap;rounded=0;fontFamily=Helvetica;fontSize=18;fontColor=default;" parent="41" vertex="1">
                    <mxGeometry x="1740" y="210" width="210" height="76.22" as="geometry"/>
                </mxCell>
                <mxCell id="194" value="" style="endArrow=classic;html=1;exitX=0;exitY=0.25;exitDx=0;exitDy=0;strokeWidth=5;strokeColor=light-dark(#d32f2f, #ededed);entryX=1;entryY=0.75;entryDx=0;entryDy=0;" edge="1" parent="41" source="108" target="39">
                    <mxGeometry relative="1" as="geometry">
                        <mxPoint x="1806" y="1067" as="sourcePoint"/>
                        <mxPoint x="1862.9999999999995" y="1382" as="targetPoint"/>
                        <Array as="points">
                            <mxPoint x="1979.9999999999995" y="1326"/>
                            <mxPoint x="1979.9999999999995" y="842"/>
                        </Array>
                    </mxGeometry>
                </mxCell>
                <mxCell id="71" value="" style="group" parent="1" vertex="1" connectable="0">
                    <mxGeometry x="-550" y="-60" width="1210" height="200" as="geometry"/>
                </mxCell>
                <mxCell id="72" value="" style="group" parent="71" vertex="1" connectable="0">
                    <mxGeometry width="1210" height="200" as="geometry"/>
                </mxCell>
                <mxCell id="19" value="&lt;h1&gt;&lt;br&gt;&lt;/h1&gt;" style="rounded=1;whiteSpace=wrap;html=1;fillColor=light-dark(#F5E1E1,#EDEDED);strokeColor=none;align=center;verticalAlign=middle;fontFamily=Helvetica;fontSize=12;fontColor=default;" parent="72" vertex="1">
                    <mxGeometry width="1210" height="200" as="geometry"/>
                </mxCell>
                <mxCell id="23" value="&lt;h1&gt;&lt;font color=&quot;#000000&quot;&gt;Power Supply Unit&amp;nbsp;&lt;/font&gt;&lt;/h1&gt;" style="text;html=1;align=center;verticalAlign=middle;whiteSpace=wrap;rounded=0;fontFamily=Helvetica;fontSize=18;fontColor=default;" parent="72" vertex="1">
                    <mxGeometry x="122.31521739130436" y="20" width="965.3695652173914" height="80" as="geometry"/>
                </mxCell>
                <mxCell id="24" value="&lt;h1&gt;&lt;font color=&quot;#000000&quot;&gt;(Motors &amp;amp; Sensors &amp;amp; USBIO)&lt;/font&gt;&lt;/h1&gt;" style="text;html=1;align=center;verticalAlign=middle;whiteSpace=wrap;rounded=0;fontFamily=Helvetica;fontSize=18;fontColor=default;" parent="72" vertex="1">
                    <mxGeometry x="122.31521739130436" y="100" width="965.3695652173914" height="80" as="geometry"/>
                </mxCell>
                <mxCell id="173" value="" style="endArrow=classic;html=1;entryX=0.5;entryY=1;entryDx=0;entryDy=0;strokeWidth=5;strokeColor=light-dark(#0000FF,#EDEDED);exitX=1;exitY=0.599;exitDx=0;exitDy=0;exitPerimeter=0;" parent="1" source="19" target="129" edge="1">
                    <mxGeometry relative="1" as="geometry">
                        <mxPoint x="660" y="140" as="sourcePoint"/>
                        <mxPoint x="1372.2600000000004" y="205" as="targetPoint"/>
                        <Array as="points">
                            <mxPoint x="2533" y="60"/>
                        </Array>
                    </mxGeometry>
                </mxCell>
                <mxCell id="176" value="d" style="endArrow=classic;html=1;entryX=0.5;entryY=1;entryDx=0;entryDy=0;strokeWidth=5;strokeColor=light-dark(#0000FF,#EDEDED);" parent="1" target="93" edge="1">
                    <mxGeometry relative="1" as="geometry">
                        <mxPoint x="660" y="40" as="sourcePoint"/>
                        <mxPoint x="2543" y="-24" as="targetPoint"/>
                        <Array as="points">
                            <mxPoint x="1943" y="40"/>
                        </Array>
                    </mxGeometry>
                </mxCell>
                <mxCell id="178" value="d" style="endArrow=classic;html=1;entryX=0.5;entryY=0;entryDx=0;entryDy=0;strokeWidth=5;strokeColor=light-dark(#0000FF,#EDEDED);" parent="1" target="107" edge="1">
                    <mxGeometry relative="1" as="geometry">
                        <mxPoint x="660" y="80" as="sourcePoint"/>
                        <mxPoint x="1953" y="-23" as="targetPoint"/>
                        <Array as="points">
                            <mxPoint x="1953" y="80"/>
                        </Array>
                    </mxGeometry>
                </mxCell>
                <mxCell id="188" value="&lt;h1 style=&quot;text-align: justify;&quot;&gt;&lt;font style=&quot;font-size: 44px; color: rgb(255, 255, 255);&quot;&gt;1. All sensors are connected to the USBIO, which collects their signals and transmits them to the computer&lt;/font&gt;&lt;/h1&gt;&lt;div&gt;&lt;font style=&quot;font-size: 44px; color: rgb(255, 255, 255);&quot;&gt;&lt;br&gt;&lt;/font&gt;&lt;/div&gt;" style="text;html=1;align=center;verticalAlign=middle;whiteSpace=wrap;rounded=0;fontFamily=Helvetica;fontSize=18;fontColor=default;" parent="1" vertex="1">
                    <mxGeometry x="-1130" y="-1570" width="2260" height="220" as="geometry"/>
                </mxCell>
                <mxCell id="189" value="&lt;h1&gt;&lt;b style=&quot;font-size: 44px; text-align: justify;&quot;&gt;&lt;font style=&quot;color: rgb(255, 255, 255);&quot;&gt;2. A total of three CAN lines connect the computer and the robot through USB-to-CAN adapters&lt;/font&gt;&lt;/b&gt;&lt;/h1&gt;" style="text;html=1;align=center;verticalAlign=middle;whiteSpace=wrap;rounded=0;fontFamily=Helvetica;fontSize=18;fontColor=default;" parent="1" vertex="1">
                    <mxGeometry x="-1150" y="-1445" width="2050" height="76.22" as="geometry"/>
                </mxCell>
                <mxCell id="190" value="&lt;h1 style=&quot;&quot;&gt;&lt;font style=&quot;color: rgb(255, 255, 255); font-size: 44px;&quot;&gt;3. The motors are powered with 48V, while the sensors receive 24V.&lt;/font&gt;&lt;/h1&gt;" style="text;html=1;align=left;verticalAlign=middle;whiteSpace=wrap;rounded=0;fontFamily=Helvetica;fontSize=18;fontColor=default;" parent="1" vertex="1">
                    <mxGeometry x="-1120" y="-1370" width="2050" height="76.22" as="geometry"/>
                </mxCell>
            </root>
        </mxGraphModel>
    </diagram>
</mxfile>